#!OML:ASF E:\motion texture\Top Level 1\Subject 1\Session 1\male.ASF
:FULLY-SPECIFIED
:DEGREES
198
root 13.5694 17.5863 7.04526 75.924 -82.264 -68.7458
lowerback 0.52187 1.71083 4.06355
upperback -0.0642616 2.27387 2.58773
thorax -0.304606 1.11313 0.362171
lowerneck -16.9056 -4.99578 -7.76921
upperneck 12.9938 -6.22757 7.72016
head 7.24872 -2.70214 3.08347
rclavicle -1.73315e-014 -2.8128e-014
rhumerus -32.2538 20.1583 -94.4631
rradius 86.5666
rwrist 21.4037
rhand -17.5845 -16.2664
rfingers 7.12502
rthumb 8.67127 -46.0683
lclavicle -1.73315e-014 -2.8128e-014
lhumerus -32.778 -7.12395 96.9076
lradius 63.9568
lwrist -11.0498
lhand -17.4543 24.2404
lfingers 7.12502
lthumb 8.79696 54.0371
rfemur -6.04354 -3.14723 26.9847
rtibia 41.3144
rfoot -5.75299 -16.1394
rtoes -6.6188
lfemur -29.7555 1.4233 -7.79712
ltibia 22.102
lfoot -2.56522 4.90164
ltoes -5.38498
199
root 13.396 17.5897 7.07206 75.4891 -82.4675 -68.4049
lowerback 0.515598 1.67611 3.78347
upperback -0.0672264 2.22937 2.4763
thorax -0.311499 1.09306 0.404004
lowerneck -16.8249 -4.97507 -7.7853
upperneck 12.9521 -6.21306 7.79793
head 7.22352 -2.69158 3.11461
rclavicle 3.1408e-014 6.26172e-014
rhumerus -31.8956 20.2719 -94.3368
rradius 86.6057
rwrist 21.4401
rhand -17.5176 -16.1801
rfingers 7.12502
rthumb 8.73592 -45.9794
lclavicle 3.1408e-014 6.26172e-014
lhumerus -32.2971 -7.60258 97.1006
lradius 63.9417
lwrist -10.9425
lhand -17.4705 24.3035
lfingers 7.12502
lthumb 8.78131 54.1008
rfemur -6.73236 -3.55876 26.5712
rtibia 42.7789
rfoot -5.02776 -16.2331
rtoes -5.96993
lfemur -29.3681 1.57265 -8.22652
ltibia 22.5412
lfoot -2.7391 4.63424
ltoes -4.88269
200
root 13.2236 17.5942 7.09853 74.9505 -82.6739 -67.9561
lowerback 0.508764 1.63744 3.4989
upperback -0.0712816 2.17946 2.36336
thorax -0.31914 1.07023 0.446967
lowerneck -16.7445 -4.95421 -7.80239
upperneck 12.9079 -6.19794 7.8761
head 7.19755 -2.6808 3.14607
rclavicle 1.67383e-014 9.69075e-016
rhumerus -31.5112 20.3974 -94.1933
rradius 86.6519
rwrist 21.4693
rhand -17.4543 -16.099
rfingers 7.12502
rthumb 8.797 -45.8956
lclavicle 1.67383e-014 9.69075e-016
lhumerus -31.7821 -8.11497 97.2994
lradius 63.917
lwrist -10.835
lhand -17.4867 24.3677
lfingers 7.12502
lthumb 8.76571 54.1657
rfemur -7.46947 -3.98102 26.16
rtibia 44.2208
rfoot -4.33561 -16.3457
rtoes -5.30129
lfemur -28.9581 1.71114 -8.65436
ltibia 22.97
lfoot -2.93501 4.37778
ltoes -4.41484
201
root 13.0523 17.5999 7.12458 74.3043 -82.8813 -67.3958
lowerback 0.50287 1.596 3.21165
upperback -0.0776014 2.1258 2.24899
thorax -0.329432 1.04541 0.490061
lowerneck -16.6599 -4.93372 -7.82055
upperneck 12.8597 -6.18345 7.95641
head 7.1697 -2.67036 3.17836
rclavicle 1.87059e-015 -2.9327e-014
rhumerus -31.1023 20.5327 -94.032
rradius 86.7058
rwrist 21.4894
rhand -17.3985 -16.0243
rfingers 7.12502
rthumb 8.85078 -45.8187
lclavicle 1.87059e-015 -2.9327e-014
lhumerus -31.2356 -8.66393 97.5036
lradius 63.8844
lwrist -10.7255
lhand -17.5054 24.4382
lfingers 7.12502
lthumb 8.74764 54.2369
rfemur -8.25137 -4.41253 25.7549
rtibia 45.631
rfoot -3.6838 -16.4781
rtoes -4.60962
lfemur -28.5237 1.83798 -9.07747
ltibia 23.379
lfoot -3.14896 4.13164
ltoes -3.98817
202
root 12.882 17.6066 7.15018 73.5512 -83.0878 -66.7241
lowerback 0.497996 1.55086 2.92379
upperback -0.0852858 2.06709 2.13458
thorax -0.341455 1.01797 0.533601
lowerneck -16.5763 -4.91304 -7.8407
upperneck 12.8089 -6.16809 8.03772
head 7.14122 -2.65955 3.21134
rclavicle 9.07887e-015 -1.43125e-014
rhumerus -30.6664 20.6825 -93.8523
rradius 86.767
rwrist 21.5018
rhand -17.353 -15.9565
rfingers 7.12502
rthumb 8.89471 -45.7491
lclavicle 9.07887e-015 -1.43125e-014
lhumerus -30.6556 -9.24545 97.7109
lradius 63.8455
lwrist -10.6139
lhand -17.525 24.51
lfingers 7.12502
lthumb 8.72876 54.3095
rfemur -9.07531 -4.85269 25.3593
rtibia 46.9999
rfoot -3.07712 -16.629
rtoes -3.90886
lfemur -28.0646 1.95198 -9.49319
ltibia 23.759
lfoot -3.37818 3.89623
ltoes -3.60061
203
root 12.7128 17.6142 7.1753 72.6967 -83.2926 -65.9454
lowerback 0.492336 1.5044 2.6373
upperback -0.0958645 2.00646 2.01921
thorax -0.355587 0.989472 0.575525
lowerneck -16.4861 -4.89317 -7.85956
upperneck 12.7526 -6.1542 8.11896
head 7.10987 -2.64964 3.24395
rclavicle 3.49737e-015 -9.93923e-016
rhumerus -30.2061 20.8419 -93.6536
rradius 86.8366
rwrist 21.5041
rhand -17.314 -15.8961
rfingers 7.12502
rthumb 8.93233 -45.687
lclavicle 3.49737e-015 -9.93923e-016
lhumerus -30.0466 -9.8648 97.921
lradius 63.8026
lwrist -10.4988
lhand -17.5476 24.5919
lfingers 7.12502
lthumb 8.70689 54.3923
rfemur -9.93829 -5.2991 24.9758
rtibia 48.3178
rfoot -2.52337 -16.7976
rtoes -3.20016
lfemur -27.5796 2.05518 -9.90024
ltibia 24.1003
lfoot -3.61954 3.66962
ltoes -3.2463
204
root 12.5449 17.6227 7.19985 71.7297 -83.4943 -65.0483
lowerback 0.488016 1.45464 2.35294
upperback -0.106373 1.94123 1.9041
thorax -0.370007 0.958602 0.61666
lowerneck -16.4064 -4.87379 -7.87821
upperneck 12.6954 -6.14008 8.19992
head 7.08003 -2.63942 3.27629
rclavicle -4.07384e-014 -2.68359e-014
rhumerus -29.7137 21.0168 -93.4344
rradius 86.9128
rwrist 21.498
rhand -17.2843 -15.8441
rfingers 7.12502
rthumb 8.96102 -45.6338
lclavicle -4.07384e-014 -2.68359e-014
lhumerus -29.4012 -10.5161 98.13
lradius 63.756
lwrist -10.3791
lhand -17.5721 24.6764
lfingers 7.12502
lthumb 8.68326 54.4778
rfemur -10.8378 -5.75098 24.6067
rtibia 49.5771
rfoot -2.03038 -16.9837
rtoes -2.49329
lfemur -27.0696 2.14833 -10.2981
ltibia 24.3973
lfoot -3.87369 3.45116
ltoes -2.91518
205
root 12.3782 17.632 7.22383 70.6249 -83.6908 -64.0063
lowerback 0.483732 1.40072 2.07096
upperback -0.119876 1.87026 1.79084
thorax -0.387142 0.924754 0.658491
lowerneck -16.3235 -4.85376 -7.90109
upperneck 12.6341 -6.12426 8.28268
head 7.04838 -2.62859 3.3101
rclavicle 3.35449e-015 -5.26779e-015
rhumerus -29.1951 21.2099 -93.1937
rradius 86.9967
rwrist 21.4814
rhand -17.2633 -15.801
rfingers 7.12502
rthumb 8.98125 -45.5898
lclavicle 3.35449e-015 -5.26779e-015
lhumerus -28.7254 -11.1964 98.3388
lradius 63.7085
lwrist -10.2544
lhand -17.5966 24.7725
lfingers 7.12502
lthumb 8.65966 54.5749
rfemur -11.769 -6.20953 24.2538
rtibia 50.7666
rfoot -1.6015 -17.1875
rtoes -1.79533
lfemur -26.5364 2.22863 -10.6858
ltibia 24.6459
lfoot -4.14312 3.24152
ltoes -2.6106
206
root 12.2128 17.642 7.24712 69.3991 -83.8819 -62.8373
lowerback 0.47153 1.3451 1.79098
upperback -0.128193 1.79637 1.67957
thorax -0.394126 0.88945 0.701687
lowerneck -16.2469 -4.83538 -7.92496
upperneck 12.5645 -6.10948 8.36647
head 7.01524 -2.61815 3.34413
rclavicle 1.4797e-014 9.24349e-015
rhumerus -28.6365 21.4177 -92.9251
rradius 87.0872
rwrist 21.4554
rhand -17.2516 -15.7675
rfingers 7.12502
rthumb 8.9926 -45.5559
lclavicle 1.4797e-014 9.24349e-015
lhumerus -28.0056 -11.911 98.5448
lradius 63.6585
lwrist -10.1221
lhand -17.6278 24.8748
lfingers 7.12502
lthumb 8.62949 54.6784
rfemur -12.728 -6.67031 23.919
rtibia 51.879
rfoot -1.23981 -17.4089
rtoes -1.11606
lfemur -25.9796 2.29985 -11.0627
ltibia 24.8438
lfoot -4.43021 3.04096
ltoes -2.34328
207
root 12.0488 17.6526 7.2697 68.0535 -84.0668 -61.541
lowerback 0.463936 1.28711 1.51523
upperback -0.141071 1.71939 1.56938
thorax -0.407843 0.852469 0.743568
lowerneck -16.1697 -4.81787 -7.94944
upperneck 12.4925 -6.0957 8.451
head 6.98139 -2.60825 3.37836
rclavicle 1.57785e-015 1.33186e-014
rhumerus -28.0538 21.6401 -92.6363
rradius 87.1852
rwrist 21.4201
rhand -17.2566 -15.7461
rfingers 7.12502
rthumb 8.98779 -45.5346
lclavicle 1.57785e-015 1.33186e-014
lhumerus -27.2569 -12.6556 98.746
lradius 63.6093
lwrist -9.97998
lhand -17.6575 24.9937
lfingers 7.12502
lthumb 8.60088 54.7985
rfemur -13.7117 -7.1308 23.604
rtibia 52.9065
rfoot -0.947591 -17.6465
rtoes -0.452756
lfemur -25.4013 2.36351 -11.4283
ltibia 24.9893
lfoot -4.73395 2.84958
ltoes -2.11459
208
root 11.8862 17.6637 7.29155 66.5614 -84.2441 -60.0911
lowerback 0.460401 1.22703 1.24417
upperback -0.159536 1.63961 1.45989
thorax -0.428999 0.813992 0.783481
lowerneck -16.0866 -4.80003 -7.97265
upperneck 12.4171 -6.08194 8.5356
head 6.94541 -2.59851 3.41242
rclavicle 9.7156e-015 1.09332e-014
rhumerus -27.4499 21.874 -92.3269
rradius 87.2916
rwrist 21.3754
rhand -17.2734 -15.7329
rfingers 7.12502
rthumb 8.97157 -45.5222
lclavicle 9.7156e-015 1.09332e-014
lhumerus -26.4847 -13.4314 98.9418
lradius 63.565
lwrist -9.82606
lhand -17.6841 25.1227
lfingers 7.12502
lthumb 8.57524 54.9286
rfemur -14.7143 -7.59176 23.3087
rtibia 53.8389
rfoot -0.724071 -17.8997
rtoes 0.195159
lfemur -24.8045 2.41962 -11.7839
ltibia 25.0849
lfoot -5.05251 2.66502
ltoes -1.9165
209
root 11.7249 17.6752 7.31259 64.9306 -84.4127 -58.495
lowerback 0.456571 1.16488 0.977539
upperback -0.178483 1.55679 1.35274
thorax -0.449974 0.773946 0.823466
lowerneck -16.0069 -4.78315 -7.99696
upperneck 12.337 -6.06876 8.62141
head 6.90862 -2.58901 3.44689
rclavicle -1.15047e-014 4.57205e-015
rhumerus -26.8144 22.1226 -91.9915
rradius 87.4046
rwrist 21.32
rhand -17.3044 -15.7321
rfingers 7.12502
rthumb 8.94162 -45.5227
lclavicle -1.15047e-014 4.57205e-015
lhumerus -25.6764 -14.2357 99.1293
lradius 63.5229
lwrist -9.65889
lhand -17.7087 25.2634
lfingers 7.12502
lthumb 8.55142 55.0703
rfemur -15.7321 -8.0503 23.0349
rtibia 54.6699
rfoot -0.569656 -18.1676
rtoes 0.820749
lfemur -24.1911 2.47096 -12.1287
ltibia 25.1325
lfoot -5.38281 2.48983
ltoes -1.71686
210
root 11.5651 17.6871 7.33277 63.1591 -84.5715 -56.7505
lowerback 0.45571 1.09971 0.715501
upperback -0.199137 1.46974 1.24873
thorax -0.473841 0.731741 0.864135
lowerneck -15.9346 -4.7668 -8.02357
upperneck 12.256 -6.05529 8.70856
head 6.87294 -2.57924 3.48207
rclavicle 9.93923e-016 5.96354e-015
rhumerus -26.1474 22.3883 -91.63
rradius 87.5234
rwrist 21.2532
rhand -17.3498 -15.7445
rfingers 7.12502
rthumb 8.89782 -45.5369
lclavicle 9.93923e-016 5.96354e-015
lhumerus -24.8337 -15.0632 99.3063
lradius 63.4838
lwrist -9.47627
lhand -17.729 25.4167
lfingers 7.12502
lthumb 8.53188 55.2244
rfemur -16.761 -8.50413 22.7832
rtibia 55.3924
rfoot -0.482419 -18.4489
rtoes 1.43006
lfemur -23.5639 2.51918 -12.463
ltibia 25.1345
lfoot -5.72299 2.32879
ltoes -1.52777
211
root 11.4067 17.6992 7.35206 61.2251 -84.7188 -54.8358
lowerback 0.456688 1.03234 0.459627
upperback -0.222723 1.37957 1.14571
thorax -0.50112 0.68794 0.902428
lowerneck -15.8604 -4.75142 -8.04759
upperneck 12.1694 -6.04349 8.79622
head 6.83524 -2.57027 3.51677
rclavicle 1.0635e-014 1.17283e-014
rhumerus -25.4539 22.6642 -91.2447
rradius 87.6478
rwrist 21.1758
rhand -17.4078 -15.77
rfingers 7.12502
rthumb 8.84182 -45.5648
lclavicle 1.0635e-014 1.17283e-014
lhumerus -23.9629 -15.919 99.4702
lradius 63.4517
lwrist -9.27219
lhand -17.75 25.5769
lfingers 7.12502
lthumb 8.51165 55.3854
rfemur -17.7959 -8.95294 22.5531
rtibia 55.9992
rfoot -0.461436 -18.741
rtoes 2.02168
lfemur -22.9257 2.56481 -12.7885
ltibia 25.0956
lfoot -6.07579 2.19235
ltoes -1.37291
212
root 11.2497 17.7114 7.3704 59.1403 -84.8529 -52.7618
lowerback 0.457288 0.962794 0.208397
upperback -0.247677 1.28621 1.04672
thorax -0.529073 0.642531 0.942367
lowerneck -15.788 -4.73748 -8.07343
upperneck 12.0776 -6.03287 8.88522
head 6.79637 -2.56187 3.55198
rclavicle -7.62836e-015 -1.15295e-014
rhumerus -24.73 22.9518 -90.8306
rradius 87.7778
rwrist 21.0863
rhand -17.4817 -15.8103
rfingers 7.12502
rthumb 8.77051 -45.6081
lclavicle -7.62836e-015 -1.15295e-014
lhumerus -23.0587 -16.7991 99.6212
lradius 63.4258
lwrist -9.04754
lhand -17.7652 25.742
lfingers 7.12502
lthumb 8.49689 55.551
rfemur -18.8333 -9.39507 22.3456
rtibia 56.4845
rfoot -0.503213 -19.041
rtoes 2.59641
lfemur -22.2795 2.61046 -13.1048
ltibia 25.021
lfoot -6.44383 2.07606
ltoes -1.27328
